<?xml version="1.0" encoding="iso-8859-1"?>
<!-- Generator: Adobe Illustrator 19.0.0, SVG Export Plug-In . SVG Version: 6.00 Build 0)  -->
<svg version="1.1" id="Capa_1" xmlns="http://www.w3.org/2000/svg" xmlns:xlink="http://www.w3.org/1999/xlink" x="0px" y="0px" viewBox="0 0 479 479" style="enable-background:new 0 0 479 479;" xml:space="preserve">
<g>
	<path d="M423.5,0h-368C24.897,0,0,24.897,0,55.5v368C0,454.103,24.897,479,55.5,479h368c30.603,0,55.5-24.897,55.5-55.5v-368
		C479,24.897,454.103,0,423.5,0z M464,423.5c0,22.332-18.168,40.5-40.5,40.5h-368C33.168,464,15,445.832,15,423.5v-368
		C15,33.168,33.168,15,55.5,15h368c22.332,0,40.5,18.168,40.5,40.5V423.5z"/>
	<path d="M135.5,223c48.248,0,87.5-39.252,87.5-87.5S183.748,48,135.5,48S48,87.252,48,135.5S87.252,223,135.5,223z M135.5,63
		c39.977,0,72.5,32.523,72.5,72.5S175.477,208,135.5,208S63,175.477,63,135.5S95.523,63,135.5,63z"/>
	<path d="M416.47,96.925l-41.87-6.084l-18.725-37.94c-2.952-5.981-8.928-9.696-15.598-9.696c-6.669,0-12.646,3.715-15.597,9.696
		l-18.725,37.94l-41.87,6.084c-6.6,0.959-11.98,5.495-14.041,11.837c-2.061,6.343-0.375,13.175,4.401,17.831l30.297,29.532
		l-7.152,41.701c-1.127,6.573,1.524,13.092,6.919,17.012c3.049,2.215,6.616,3.341,10.208,3.341c2.764,0,5.543-0.667,8.111-2.017
		l37.449-19.688l37.449,19.688c5.904,3.104,12.922,2.597,18.317-1.323c5.396-3.92,8.047-10.439,6.92-17.013l-7.152-41.7
		l30.297-29.532c4.775-4.655,6.462-11.488,4.401-17.831C428.45,102.42,423.07,97.884,416.47,96.925z M415.639,115.852l-33.12,32.285
		c-1.768,1.723-2.575,4.206-2.157,6.639l7.819,45.586c0.219,1.276-0.502,2.014-0.952,2.341c-0.45,0.327-1.376,0.785-2.521,0.182
		l-40.939-21.523c-2.186-1.148-4.795-1.148-6.98,0l-40.939,21.523c-1.146,0.603-2.071,0.145-2.521-0.182
		c-0.45-0.327-1.171-1.065-0.952-2.341l7.819-45.586c0.417-2.433-0.389-4.916-2.157-6.639l-33.12-32.285
		c-0.927-0.904-0.778-1.925-0.606-2.454c0.172-0.528,0.651-1.442,1.932-1.629l45.772-6.651c2.443-0.355,4.554-1.889,5.647-4.103
		l20.47-41.477c0.573-1.161,1.591-1.334,2.146-1.334c0.556,0,1.574,0.173,2.146,1.334l20.47,41.476
		c1.092,2.213,3.204,3.748,5.647,4.103l45.772,6.651c1.281,0.187,1.76,1.101,1.932,1.629
		C416.417,113.927,416.566,114.948,415.639,115.852z"/>
	<path d="M340.803,242.197c-2.929-2.929-7.678-2.929-10.606,0l-88,88c-2.929,2.929-2.929,7.678,0,10.606l88,88
		c1.464,1.464,3.384,2.197,5.303,2.197s3.839-0.732,5.303-2.197l88-88c2.929-2.929,2.929-7.678,0-10.606L340.803,242.197z
		 M335.5,412.894L258.106,335.5l77.394-77.394l77.394,77.394L335.5,412.894z"/>
	<path d="M144.515,259.75c-1.34-2.32-3.815-3.75-6.495-3.75s-5.155,1.43-6.495,3.75l-87.757,152c-1.34,2.32-1.34,5.18,0,7.5
		s3.815,3.75,6.495,3.75h175.515c2.68,0,5.155-1.43,6.495-3.75s1.34-5.18,0-7.5L144.515,259.75z M63.252,408l74.767-129.5
		L212.787,408H63.252z"/>
	<path d="M373.629,119.392l-18.397-2.673l-8.228-16.671c-1.833-3.714-6.329-5.24-10.045-3.406
		c-3.714,1.833-5.239,6.331-3.406,10.045l9.973,20.207c1.093,2.213,3.204,3.748,5.647,4.103l22.299,3.24
		c0.366,0.053,0.729,0.079,1.088,0.079c3.665,0,6.87-2.689,7.413-6.422C380.568,123.793,377.728,119.987,373.629,119.392z"/>
	<path d="M135.5,95c22.332,0,40.5,18.168,40.5,40.5c0,4.142,3.358,7.5,7.5,7.5s7.5-3.358,7.5-7.5c0-30.603-24.897-55.5-55.5-55.5
		c-4.142,0-7.5,3.358-7.5,7.5S131.358,95,135.5,95z"/>
	<path d="M330.197,290.197c-2.929,2.929-2.929,7.678,0,10.606l40,40c1.464,1.464,3.384,2.197,5.303,2.197s3.839-0.732,5.303-2.197
		c2.929-2.929,2.929-7.678,0-10.606l-40-40C337.875,287.268,333.125,287.268,330.197,290.197z"/>
	<path d="M134.27,321.005c-3.587,2.071-4.816,6.658-2.745,10.245l31.757,55.005c1.389,2.406,3.91,3.751,6.502,3.751
		c1.272,0,2.562-0.324,3.743-1.006c3.587-2.071,4.816-6.658,2.745-10.245l-31.757-55.005
		C142.443,320.163,137.857,318.933,134.27,321.005z"/>
</g>
<g>
</g>
<g>
</g>
<g>
</g>
<g>
</g>
<g>
</g>
<g>
</g>
<g>
</g>
<g>
</g>
<g>
</g>
<g>
</g>
<g>
</g>
<g>
</g>
<g>
</g>
<g>
</g>
<g>
</g>
</svg>
